<svg id="Layer_1" data-name="Layer 1" xmlns="http://www.w3.org/2000/svg" xmlns:xlink="http://www.w3.org/1999/xlink" viewBox="0 0 1275.45 511.91"><defs><style>.cls-1{filter:url(#AI_Shadow_1);}.cls-2{fill:#7f0279;}.cls-3{fill:none;stroke:#ad01fd;stroke-miterlimit:10;}.cls-4{fill:#400d81;}.cls-5{fill:#333;}</style><filter id="AI_Shadow_1" name="AI_Shadow_1"><feGaussianBlur result="blur" stdDeviation="2" in="SourceAlpha"/><feOffset result="offsetBlurredAlpha" dx="4" dy="4" in="blur"/><feMerge><feMergeNode in="offsetBlurredAlpha"/><feMergeNode in="SourceGraphic"/></feMerge></filter></defs><title>cv_LOGO</title><g class="cls-1"><polygon class="cls-2" points="441.18 44.84 442.9 42.86 260 268.95 439.58 478.49 402.72 511.2 191.9 267.99 0.5 267.99 0.5 229.98 211.38 229.98 275.33 153.25 89.88 153.25 89.88 115.24 300.12 115.24 376.59 32.19 217.33 32.19 217.33 0.5 441.18 0.5 441.18 44.84"/><polygon class="cls-3" points="439.58 478.49 260 268.95 442.9 42.86 441.18 44.84 441.18 0.5 217.33 0.5 217.33 32.19 376.59 32.19 300.12 115.24 89.88 115.24 89.88 153.25 275.33 153.25 211.38 229.98 0.5 229.98 0.5 267.99 191.9 267.99 402.72 511.2 439.58 478.49"/></g><g class="cls-1"><polygon class="cls-4" points="1186.08 358.45 1186.08 396.46 975.83 396.46 899.36 479.58 1058.63 479.58 1058.63 511.26 834.77 511.26 834.77 466.8 835.28 468.84 1028.15 252.66 838.61 33.21 873.23 0.44 1084.05 243.71 1275.45 243.71 1275.45 281.72 1064.57 281.72 1000.62 358.45 1186.08 358.45"/></g><g class="cls-1"><path class="cls-5" d="M439,407.27H404.07l72.59-230.92h35.05Z" transform="translate(-17.64 -34.82)"/><path class="cls-5" d="M701.55,317.15q-1,22.1-12,39t-30.72,26.24q-19.78,9.31-45.17,9.31-41.88,0-66-27.19t-24.08-76.77V277.31q0-31.11,10.87-54.45t31.3-36.06q20.43-12.72,47.28-12.72,38.67,0,62.17,20.28T702,250.27H650.91q-.59-19.34-9.78-27.77t-28-8.43q-19.12,0-28,14.25t-9.34,45.51v15q0,33.88,8.54,48.42t29.41,14.54q17.66,0,27-8.29t9.92-26.32Z" transform="translate(-17.64 -34.82)"/><path class="cls-5" d="M808.41,331.13l42.35-154.79H908L836.45,389H780.37l-71-212.62h56.81Z" transform="translate(-17.64 -34.82)"/></g></svg>