<svg id="Layer_1" data-name="Layer 1" xmlns="http://www.w3.org/2000/svg" viewBox="0 0 529.17 169"><defs><style>.cls-1{fill:#7f0279;}.cls-2{fill:#400d81;}.cls-3{font-size:46.32px;font-family:Roboto-Black, Roboto Black;}.cls-4{letter-spacing:-0.12em;}.cls-5{letter-spacing:-0.01em;}</style></defs><title>cvd2_LOGO</title><path class="cls-1" d="M156.3,288a51.44,51.44,0,0,0,20.05,20.7A57.32,57.32,0,0,0,205.29,316H216V293.57a4.75,4.75,0,0,1-1-.1V293h-9.67q-12.87,0-19.6-8.89T179,257.7v-5.23q0-17.61,6.73-26.54T205,217h10V194H204.45a56,56,0,0,0-28.56,7.58A51.64,51.64,0,0,0,156,222.36a63.09,63.09,0,0,0-7,30V258A62.76,62.76,0,0,0,156.3,288Z" transform="translate(-23.83 -194)"/><rect class="cls-1" x="188.17" y="99" width="16" height="23"/><rect class="cls-1" x="188.17" width="16" height="23"/><path class="cls-2" d="M289.83,282.82,314.13,194H347L305.92,316H273.74L233,194h32.6Z" transform="translate(-23.83 -194)"/><path class="cls-1" d="M423.7,288a51.44,51.44,0,0,1-20.05,20.7A57.32,57.32,0,0,1,374.71,316H364V293.57a4.75,4.75,0,0,0,1-.1V293h9.67q12.87,0,19.6-8.89T401,257.7v-5.23q0-17.61-6.73-26.54T375,217H365V194h10.55a56,56,0,0,1,28.56,7.58A51.64,51.64,0,0,1,424,222.36a63.09,63.09,0,0,1,7,30V258A62.76,62.76,0,0,1,423.7,288Z" transform="translate(-23.83 -194)"/><rect class="cls-1" x="352" y="293" width="16" height="23" transform="translate(696.17 415) rotate(-180)"/><rect class="cls-1" x="352" y="194" width="16" height="23" transform="translate(696.17 217) rotate(-180)"/><path class="cls-2" d="M334,307" transform="translate(-23.83 -194)"/><polyline class="cls-2" points="249.91 122 266.17 169 282.09 122"/><text class="cls-3" transform="translate(0.66 155.86)"><tspan class="cls-4">/</tspan><tspan x="10.65" y="0">/ Cruceanu Vic</tspan><tspan class="cls-5" x="317.57" y="0">t</tspan><tspan x="332.79" y="0">or-Daniel</tspan></text></svg>