<svg id="Layer_1" data-name="Layer 1" xmlns="http://www.w3.org/2000/svg" viewBox="0 0 529.17 169"><defs><style>.cls-1{fill:#400d81;}.cls-2{font-size:46.32px;font-family:Roboto-Black, Roboto Black;}.cls-3{letter-spacing:-0.12em;}.cls-4{letter-spacing:-0.01em;}</style></defs><title>cvd3_LOGO</title><path class="cls-1" d="M289.83,282.82,314.13,194H347L305.92,316H273.74L233,194h32.6Z" transform="translate(-23.83 -194)"/><path class="cls-1" d="M334,307" transform="translate(-23.83 -194)"/><polyline class="cls-1" points="249.91 122 266.17 169 282.09 122"/><text class="cls-2" transform="translate(0.66 155.86)"><tspan class="cls-3">/</tspan><tspan x="10.65" y="0">/ Cruceanu Vic</tspan><tspan class="cls-4" x="317.57" y="0">t</tspan><tspan x="332.79" y="0">or-Daniel</tspan></text><path d="M289,423.17" transform="translate(-23.83 -194)"/><path d="M302,478.83" transform="translate(-23.83 -194)"/><path d="M191.45,224.1v58.8A12.07,12.07,0,0,0,203.53,295h13v18h-57V194h57v18h-13A12.07,12.07,0,0,0,191.45,224.1Z" transform="translate(-23.83 -194)"/><polyline points="192.67 0 192.67 18.03 204.17 18.03 204.17 0"/><polyline points="192.67 100.97 204.17 100.97 204.17 119 192.67 119"/><path d="M363.51,212V194h44.91a12.08,12.08,0,0,1,12.08,12.08v94.83A12.08,12.08,0,0,1,408.42,313H363.51V295h25V212Z" transform="translate(-23.83 -194)"/><polyline points="339.68 0 339.68 18.03 328.17 18.03 328.17 0"/><polyline points="339.68 100.97 328.17 100.97 328.17 119 339.68 119"/></svg>