<svg id="Layer_1" data-name="Layer 1" xmlns="http://www.w3.org/2000/svg" viewBox="0 0 529.17 169"><defs><style>.cls-1{fill:#400d81;}.cls-2{font-size:46.32px;font-family:Roboto-Black, Roboto Black;}.cls-3{letter-spacing:-0.12em;}.cls-4{letter-spacing:-0.01em;}</style></defs><title>cvd4_LOGO</title><path class="cls-1" d="M289.83,282.82,314.13,194H347L305.92,316H273.74L233,194h32.6Z" transform="translate(-23.83 -194)"/><path class="cls-1" d="M334,307" transform="translate(-23.83 -194)"/><polyline class="cls-1" points="249.91 122 266.17 169 282.09 122"/><text class="cls-2" transform="translate(0.66 155.86)"><tspan class="cls-3">/</tspan><tspan x="10.65" y="0">/ Cruceanu Vic</tspan><tspan class="cls-4" x="317.57" y="0">t</tspan><tspan x="332.79" y="0">or-Daniel</tspan></text><path d="M289,423.17" transform="translate(-23.83 -194)"/><path d="M302,478.83" transform="translate(-23.83 -194)"/><path d="M192.14,224.1v58.8c0,6.67,3.78,12.07,8.45,12.07h9.08v18h-39.9V194h39.9v18h-9.08C195.93,212,192.14,217.43,192.14,224.1Z" transform="translate(-23.83 -194)"/><polyline points="185.84 0 185.84 18.03 193.9 18.03 193.9 0"/><polyline points="185.84 100.97 193.9 100.97 193.9 119 185.84 119"/><path d="M370.33,212V194h39.9V313h-39.9V295H379c4.91,0,8.89-5.69,8.89-12.7V224.73c0-7-4-12.7-8.89-12.7Z" transform="translate(-23.83 -194)"/><polyline points="346.5 0 346.5 18.03 338.45 18.03 338.45 0"/><polyline points="346.5 100.97 338.45 100.97 338.45 119 346.5 119"/></svg>